<?xml version="1.0" encoding="UTF-8"?>
<svg id="Layer_1" data-name="Layer 1" xmlns="http://www.w3.org/2000/svg" viewBox="0 0 912 862">
  <defs>
    <style>
      .cls-1 {
        fill: #feca21;
      }
    </style>
  </defs>
  <path d="M214.87,812.72c-1.47,10.89-10.44,28.36-19.23,35.35-22.76,18.1-88.46,18.79-111.56.73-33.16-25.92-18.38-65.22-21.97-101.64-6.2-4.77-13.38-6.79-20.47-11.64C8.95,713.17,1.5,677.82.37,640.68s.65-73.96.84-110.32c.29-55.56-12.39-139.26,59.57-159.08,13.47-3.71,26.34-3.17,39.34-5.61,16.43-47.3,27.81-98.44,46.13-144.89,26.08-66.13,80.86-95.4,150.58-96.63,4.94-20.62,12.23-40.9,17.19-61.47,1.48-6.13.94-13.96,2.77-21.31,6.57-26.33,23.15-38.47,49.7-40.2,58.48-3.79,121.01,3.04,179.92.02,22.15.49,40.68,17.2,47.38,37.7,2.89,8.83,1.95,17.02,3.84,25.05,4.66,19.87,11.91,39.29,16.12,59.33,2.69,3.17,15.77,1.09,20.87,1.6,64.67,6.49,110.78,40.27,133.65,100.72,17.27,45.64,28.22,94.06,44.53,140.08,10.6,2.62,21.6,1.34,33,3.92,32.11,7.28,61.35,40.95,64.21,73.85,6.29,72.57-4.69,154.31-.23,227.84-5.91,35.17-29.2,60.16-58.97,77.47-2.85,35.59,10.17,77.2-23.54,101.67-18.89,13.71-81.67,13.07-101.99,2.48-13.28-6.92-28.83-26.48-28.83-41.8v-61.8H214.87c-1.92,19.76,2.59,44.25,0,63.41ZM425.16,57.44h-49.76v48.16h49.76v-48.16ZM537.52,57.44h-49.76v48.16h49.76v-48.16ZM684.65,220.14c-23.88-24.58-50.99-23.03-82.17-24.58-57.36-2.84-116.15-1.92-173.24-1.61-47.35.26-97.67-2.06-144.52,1.56-39.98,3.09-63.67,24.36-77.41,60.64-13.41,35.43-21.4,75.2-34.18,111.08,35.71-.1,71.11-.86,106.82-1.52,121.45-2.25,239.62-2.33,361.05,0,32.93.63,65.88.95,98.79,1.52-12.74-37.15-21.17-77.96-35.72-114.36-4.6-11.51-10.69-23.76-19.42-32.75ZM143.84,470.4c-84.94,10.89-74.93,150.63,20.26,140.66,87.85-9.21,76.94-153.12-20.26-140.66ZM420.34,469.99h-65.82v70.63h65.82v-70.63ZM556.79,469.99h-65.82v70.63h65.82v-70.63ZM745.82,470.41c-85.87,11.66-73.26,149.82,18.65,140.65,90.39-9.02,78.3-153.81-18.65-140.65ZM352.92,542.23h-65.82v70.63h65.82v-70.63ZM489.37,542.23h-67.42v70.63h67.42v-70.63ZM624.21,542.23h-65.82v70.63h65.82v-70.63Z"/>
  <path class="cls-1" d="M684.65,220.14c8.73,8.99,14.82,21.24,19.42,32.75,14.55,36.39,22.99,77.21,35.72,114.36-32.91-.58-65.85-.89-98.79-1.52-121.44-2.33-239.6-2.25-361.05,0-35.7.66-71.11,1.43-106.82,1.52,12.78-35.89,20.76-75.66,34.18-111.08,13.74-36.29,37.43-57.56,77.41-60.64,46.85-3.62,97.17-1.3,144.52-1.56,57.09-.31,115.88-1.23,173.24,1.61,31.18,1.54,58.29,0,82.17,24.58Z"/>
  <path class="cls-1" d="M143.84,470.4c97.2-12.46,108.11,131.45,20.26,140.66-95.19,9.97-105.2-129.76-20.26-140.66Z"/>
  <path class="cls-1" d="M745.82,470.41c96.95-13.16,109.04,131.63,18.65,140.65-91.91,9.17-104.52-128.99-18.65-140.65Z"/>
  <rect class="cls-1" x="421.95" y="542.23" width="67.42" height="70.63"/>
  <rect class="cls-1" x="354.52" y="469.99" width="65.82" height="70.63"/>
  <rect class="cls-1" x="490.97" y="469.99" width="65.82" height="70.63"/>
  <rect class="cls-1" x="287.1" y="542.23" width="65.82" height="70.63"/>
  <rect class="cls-1" x="558.39" y="542.23" width="65.82" height="70.63"/>
  <rect class="cls-1" x="375.39" y="57.44" width="49.76" height="48.16"/>
  <rect class="cls-1" x="487.76" y="57.44" width="49.76" height="48.16"/>
</svg>